<?xml version="1.0" encoding="UTF-8" standalone="no"?><!DOCTYPE svg PUBLIC "-//W3C//DTD SVG 1.1//EN" "http://www.w3.org/Graphics/SVG/1.1/DTD/svg11.dtd"><svg width="100%" height="100%" viewBox="0 0 64 12" version="1.1" xmlns="http://www.w3.org/2000/svg" xmlns:xlink="http://www.w3.org/1999/xlink" xml:space="preserve" xmlns:serif="http://www.serif.com/" style="fill-rule:evenodd;clip-rule:evenodd;stroke-linejoin:round;stroke-miterlimit:2;"><g><path d="M32.241,5.45l0.028,4.096l-7.62,0.014l0.013,-2.675l5.532,0l0.015,-5.267l2.032,-0.016l0,3.848Z" style="fill:#fff;"/><path d="M15.933,8.555l-0.86,1.695l-1.846,0.017l0.021,-0.058l1.771,-3.161l1.77,-3.162l0.035,0.003l1.757,3.142l1.757,3.143l0.02,0.061l-1.832,-0l-0.85,-1.688l-0.849,-1.688l-0.034,0.002l-0.86,1.694Z" style="fill:#fff;"/><path d="M3.514,8.003l0,1.395l-1.894,0l-0,-7.667l1.849,0.016l0.016,2.775l3.329,0l0.016,-2.775l1.864,0l0,7.636l-1.864,0l-0.016,-2.775l-3.3,-0l0,1.395Z" style="fill:#fff;"/><path id="path6" d="M0,11.085l0,-11.04l10.299,0l-0,11.04l-10.299,0Zm3.514,-3.082l0,-1.395l3.3,-0l0.016,2.775l1.864,0l0,-7.636l-1.864,0l-0.016,2.775l-3.329,0l-0.016,-2.775l-1.849,-0.016l-0,7.667l1.894,0l0,-1.395Zm31.676,3.012l-0.015,-0.039l0.016,-10.946l1.039,-0l0.03,4.743l4.368,-4.759l1.315,0l-0.341,0.352l-2.208,2.364l-2.208,2.364l0.12,0.143l0.119,0.144l2.321,2.768l2.321,2.768l0.084,0.105l-1.337,-0.001l-2.169,-2.618l-2.168,-2.618l-0.108,0.303l-0.108,0.302l-0.016,2.324l-0.015,2.324l-1.026,0.016l-0.014,-0.039Zm-23.46,-0.076l0.06,-0.1l4.442,-7.895l-0.058,-0.128l-0.661,-1.173l-0.661,-1.174l0.001,-0.036l0.41,-0.217l0.41,-0.216l0.027,0.03l0.543,0.936l0.543,0.937l0.023,-0.015l0.023,-0.014l0.523,-0.891l0.523,-0.891l0.025,-0.04l0.026,-0.04l0.417,0.201l0.418,0.201l0,0.025l-1.322,2.378l-0.029,0.064l-0.029,0.064l2.252,4.008l2.252,4.008l0.03,0.079l-10.249,-0l0.061,-0.101Zm4.203,-2.384l0.86,-1.694l0.034,-0.002l0.849,1.688l0.85,1.688l1.832,-0l-0.02,-0.061l-1.757,-3.143l-1.757,-3.142l-0.035,-0.003l-1.77,3.162l-1.771,3.161l-0.021,0.058l1.846,-0.017l0.86,-1.695Zm7.385,-0.308l-0,-2.838l5.547,-0.016l0.015,-5.348l4.737,0l-0,11.04l-10.299,0l-0,-2.838Zm8.923,-2.682l0,-3.93l-2.032,0.016l-0.015,5.38l-5.532,-0l0,2.463l7.579,0l0,-3.929Z" style="fill-rule:nonzero;"/><path d="M63.154,0.066l0,6.24l-18.72,0l0,-6.24l18.72,0Zm-0.24,0.24l-18.24,0l0,5.76l18.24,0l0,-5.76Z" style="fill:#020000;"/><g><path d="M47.833,4.155l-1.313,-0l-0.275,0.791l-0.612,-0l1.281,-3.398l0.528,0l1.283,3.398l-0.615,-0l-0.277,-0.791Zm-1.148,-0.476l0.983,-0l-0.491,-1.41l-0.492,1.41Z" style="fill-rule:nonzero;"/><path d="M49.348,4.946l-0,-3.398l1.001,0c0.299,0 0.565,0.067 0.796,0.201c0.233,0.134 0.413,0.323 0.54,0.569c0.128,0.246 0.191,0.528 0.191,0.845l0,0.17c0,0.322 -0.064,0.605 -0.193,0.85c-0.127,0.244 -0.31,0.432 -0.547,0.564c-0.236,0.132 -0.507,0.199 -0.813,0.199l-0.975,-0Zm0.589,-2.922l-0,2.45l0.384,0c0.309,0 0.546,-0.096 0.71,-0.289c0.166,-0.195 0.251,-0.473 0.254,-0.835l-0,-0.189c-0,-0.369 -0.08,-0.651 -0.24,-0.845c-0.16,-0.195 -0.392,-0.292 -0.696,-0.292l-0.412,0Z" style="fill-rule:nonzero;"/><path d="M53.465,1.548l0.978,2.604l0.976,-2.604l0.761,0l0,3.398l-0.587,-0l0,-1.12l0.059,-1.498l-1.002,2.618l-0.421,-0l-0.999,-2.616l0.058,1.496l0,1.12l-0.587,-0l0,-3.398l0.764,0Z" style="fill-rule:nonzero;"/><rect x="57.15" y="1.548" width="0.587" height="3.397" style="fill-rule:nonzero;"/><path d="M61.388,4.946l-0.589,-0l-1.511,-2.411l-0,2.411l-0.589,-0l-0,-3.398l0.589,0l1.516,2.42l-0,-2.42l0.584,0l0,3.398Z" style="fill-rule:nonzero;"/></g></g></svg>