<?xml version="1.0" encoding="iso-8859-1"?>
<!-- Generator: Adobe Illustrator 16.0.0, SVG Export Plug-In . SVG Version: 6.00 Build 0)  -->
<!DOCTYPE svg PUBLIC "-//W3C//DTD SVG 1.1//EN" "http://www.w3.org/Graphics/SVG/1.1/DTD/svg11.dtd">
<svg version="1.1" id="Capa_1" xmlns="http://www.w3.org/2000/svg" xmlns:xlink="http://www.w3.org/1999/xlink" x="0px" y="0px"
	 width="95.098px" height="95.098px" viewBox="0 0 95.098 95.098" style="enable-background:new 0 0 95.098 95.098;"
	 xml:space="preserve">
<g>
	<g>
		<path style="fill:white" d="M47.549,0C21.288,0,0,21.288,0,47.549s21.288,47.549,47.549,47.549c26.262,0,47.549-21.288,47.549-47.549
			S73.811,0,47.549,0z M47.549,85.098C26.844,85.098,10,68.253,10,47.549S26.844,10,47.549,10s37.549,16.845,37.549,37.549
			S68.254,85.098,47.549,85.098z"/>
		<path style="fill:white" d="M77.665,29.911c-0.25-0.428-0.755-0.633-1.231-0.503l-33.783,9.213c-0.186,0.052-0.355,0.151-0.492,0.288L17.596,63.865
			c-0.346,0.354-0.414,0.895-0.164,1.32c0.25,0.428,0.755,0.635,1.232,0.504l33.783-9.214c0.093-0.024,0.182-0.062,0.265-0.11
			c0.083-0.049,0.159-0.108,0.228-0.178l24.562-24.957C77.848,30.879,77.915,30.337,77.665,29.911z M26.705,59.756l16.46-16.725
			l6.179,10.551L26.705,59.756z"/>
	</g>
</g>
</svg>
