<?xml version="1.0" encoding="UTF-8" standalone="no"?><!DOCTYPE svg PUBLIC "-//W3C//DTD SVG 1.1//EN" "http://www.w3.org/Graphics/SVG/1.1/DTD/svg11.dtd"><svg width="100%" height="100%" viewBox="0 0 320 320" version="1.1" xmlns="http://www.w3.org/2000/svg" xmlns:xlink="http://www.w3.org/1999/xlink" xml:space="preserve" xmlns:serif="http://www.serif.com/" style="fill-rule:evenodd;clip-rule:evenodd;stroke-linejoin:round;stroke-miterlimit:2;"><circle id="path641" cx="159.819" cy="159.819" r="159.819" style="fill:#8c1a14;"/><path id="path475" d="M188.515,202.381c3.318,-9.723 5.933,-17.779 5.81,-17.901c-0.122,-0.123 -1.928,0.358 -4.013,1.069c-2.981,1.015 -6.442,1.232 -16.211,1.015c-13.808,-0.308 -16.552,-1.2 -17.446,-5.673l-0.46,-2.301l-3.648,3.211c-5.172,4.553 -11.325,6.696 -19.349,6.74c-7.364,0.039 -12.561,-1.526 -15.997,-4.818l-2.186,-2.094l-4.743,2.329l-4.744,2.329l-23.442,0.239c-26.819,0.273 -34.101,-0.531 -42.576,-4.704c-8.54,-4.204 -11.7,-9.523 -11.7,-19.695c0,-7.248 1.863,-12.104 6.654,-17.346c4.802,-5.254 10.268,-8.525 18.574,-11.116c5.473,-1.706 7.659,-1.903 21.159,-1.903c13.283,-0 15.726,0.212 20.752,1.802c9.08,2.872 14.242,8.27 14.242,14.895c-0,5.064 -3.872,9.602 -11.483,13.459c-3.802,1.927 -4.476,1.989 -21.449,1.989l-17.524,0l-0,2.495c-0,3.704 1.293,5.474 4.689,6.417c1.756,0.488 12.359,0.847 25.082,0.849l22.039,0.005l-0.362,-4.364c-1.366,-16.473 10.415,-30.828 29.525,-35.98c3.015,-0.813 10.159,-1.52 18.673,-1.849l13.79,-0.532l6.225,-17.572c3.423,-9.665 6.486,-17.996 6.806,-18.514c0.405,-0.656 4.902,-0.942 14.776,-0.942c11.565,-0 14.193,0.209 14.193,1.129c0,0.972 -23.131,67.022 -26.466,75.572l-1.19,3.052l11.862,-0l7.221,-21.258l7.22,-21.257l24.481,0.414c26.582,0.449 30.369,0.976 36.232,5.039c6.259,4.337 8.504,14.386 4.96,22.195c-2.067,4.552 -8.26,11.085 -12.499,13.183l-3.399,1.682l20.955,0.001c19.855,0.001 20.956,0.08 20.956,1.508c-0,2.779 -3.605,7.007 -7.733,9.072c-4.062,2.032 -4.104,2.035 -31.228,2.27c-29.529,0.255 -32.363,-0.075 -37.47,-4.373l-2.324,-1.956l-6.806,19.927l-6.806,19.927l-29.654,0.012l6.032,-17.678l0,0Zm46.556,-28.169c9.579,-2.007 14.804,-7.493 15.51,-16.281c0.371,-4.63 0.216,-5.287 -1.823,-7.71c-2.597,-3.087 -6.009,-5.031 -8.829,-5.031c-2.169,-0 -2.297,0.288 -9.342,20.955c-3.515,10.311 -3.797,9.803 4.484,8.067Zm-73.404,-13.153c2.345,-6.714 4.522,-13.031 4.839,-14.038l0.574,-1.831l-20.154,-0l-3.567,10.429c-3.249,9.503 -3.473,10.653 -2.521,12.951c1.431,3.456 5.59,5.048 12.6,4.823l3.965,-0.127l4.264,-12.207Zm-89.659,-8.71l9.612,-7.159l-16.039,-0l-2.262,6.714c-1.245,3.692 -2.466,7.222 -2.715,7.844c-0.6,1.497 -0.133,1.194 11.404,-7.399Z" style="fill:#fff;fill-rule:nonzero;"/></svg>