<?xml version="1.0" encoding="UTF-8" standalone="no"?><!DOCTYPE svg PUBLIC "-//W3C//DTD SVG 1.1//EN" "http://www.w3.org/Graphics/SVG/1.1/DTD/svg11.dtd"><svg width="100%" height="100%" viewBox="0 0 2290 2130" version="1.1" xmlns="http://www.w3.org/2000/svg" xmlns:xlink="http://www.w3.org/1999/xlink" xml:space="preserve" xmlns:serif="http://www.serif.com/" style="fill-rule:evenodd;clip-rule:evenodd;stroke-linejoin:round;stroke-miterlimit:2;"><path d="M1437.75,1011.75l-905.25,-159.75l0,1180.39c0,53.907 43.7,97.607 97.607,97.607l1562.04,0c53.907,0 97.607,-43.7 97.607,-97.607l0,-434.893l-852,-585.75Z" style="fill:#185c37;fill-rule:nonzero;"/><path d="M1437.75,0l-807.643,0c-53.907,0 -97.607,43.7 -97.607,97.607l0,434.893l905.25,532.5l479.25,159.75l372.75,-159.75l0,-532.5l-852,-532.5Z" style="fill:#21a366;fill-rule:nonzero;"/><rect x="532.5" y="532.5" width="905.25" height="532.5" style="fill:#107c41;fill-rule:nonzero;"/><path d="M1180.39,426l-647.893,0l0,1331.25l647.893,0c53.834,-0.175 97.432,-43.773 97.607,-97.607l0,-1136.04c-0.175,-53.834 -43.773,-97.432 -97.607,-97.607Z" style="fill-opacity:0.1;fill-rule:nonzero;"/><path d="M1127.14,479.25l-594.643,0l0,1331.25l594.643,0c53.834,-0.175 97.432,-43.773 97.607,-97.607l0,-1136.04c-0.175,-53.834 -43.773,-97.432 -97.607,-97.607Z" style="fill-opacity:0.2;fill-rule:nonzero;"/><path d="M1127.14,479.25l-594.643,0l0,1224.75l594.643,0c53.834,-0.175 97.432,-43.773 97.607,-97.607l0,-1029.54c-0.175,-53.834 -43.773,-97.432 -97.607,-97.607Z" style="fill-opacity:0.2;fill-rule:nonzero;"/><path d="M1073.89,479.25l-541.393,0l0,1224.75l541.393,0c53.834,-0.175 97.432,-43.773 97.607,-97.607l0,-1029.54c-0.175,-53.834 -43.773,-97.432 -97.607,-97.607Z" style="fill-opacity:0.2;fill-rule:nonzero;"/><path d="M97.607,479.25l976.285,0c53.907,0 97.607,43.7 97.607,97.607l0,976.285c0,53.907 -43.7,97.607 -97.607,97.607l-976.285,0c-53.907,0.001 -97.607,-43.699 -97.607,-97.606l-0,-976.286c-0,-53.907 43.7,-97.607 97.607,-97.607Z" style="fill:url(#_Linear1);fill-rule:nonzero;"/><path d="M302.3,1382.26l205.332,-318.169l-188.132,-316.412l151.336,-0l102.666,202.35c9.479,19.223 15.975,33.494 19.49,42.919l1.331,-0c6.745,-15.336 13.845,-30.228 21.3,-44.677l109.748,-200.485l138.929,-0l-192.925,314.548l197.825,319.925l-147.822,-0l-118.588,-222.105c-5.586,-9.45 -10.326,-19.376 -14.164,-29.66l-1.757,-0c-3.474,10.075 -8.083,19.722 -13.739,28.755l-122.102,223.011l-148.728,-0Z" style="fill:#fff;fill-rule:nonzero;"/><path d="M2192.14,0l-754.393,0l0,532.5l852,0l0,-434.893c0,-53.907 -43.7,-97.607 -97.607,-97.607Z" style="fill:#33c481;fill-rule:nonzero;"/><rect x="1437.75" y="1065" width="852" height="532.5" style="fill:#107c41;fill-rule:nonzero;"/><defs><linearGradient id="_Linear1" x1="0" y1="0" x2="1" y2="0" gradientUnits="userSpaceOnUse" gradientTransform="matrix(764.474,1324.04,-1324.04,764.474,203.513,402.982)"><stop offset="0" style="stop-color:#18884f;stop-opacity:1"/><stop offset="0.5" style="stop-color:#117e43;stop-opacity:1"/><stop offset="1" style="stop-color:#0b6631;stop-opacity:1"/></linearGradient></defs></svg>