<?xml version="1.0" encoding="UTF-8" standalone="no"?>
<!DOCTYPE svg PUBLIC "-//W3C//DTD SVG 1.1//EN" "http://www.w3.org/Graphics/SVG/1.1/DTD/svg11.dtd">
<svg width="200" height="307" viewBox="0 0 200 307" version="1.1" xmlns="http://www.w3.org/2000/svg" xmlns:xlink="http://www.w3.org/1999/xlink" xml:space="preserve" xmlns:serif="http://www.serif.com/" style="fill-rule:evenodd;clip-rule:evenodd;stroke-linejoin:round;stroke-miterlimit:2;">
	<g>
		<path d="M100.219,302.45c0,0.055 0.11,0.164 0.11,0.164c-0,0 96,-147.469 96,-195.931c-0,-71.323 -48.658,-102.352 -96.11,-102.462c-47.452,0.11 -96.109,31.139 -96.109,102.462c-0,48.462 96.054,195.931 96.054,195.931l0.055,-0.164Zm-33.26,-199.824c-0,-18.42 14.904,-33.332 33.315,-33.332c18.411,0 33.315,14.912 33.315,33.332c0,18.42 -14.959,33.331 -33.37,33.331c-18.356,0 -33.26,-14.911 -33.26,-33.331Z" style="fill:#00aeef;fill-rule:nonzero;" />
	</g>
</svg>
