<?xml version="1.0" encoding="UTF-8" standalone="no"?><!DOCTYPE svg PUBLIC "-//W3C//DTD SVG 1.1//EN" "http://www.w3.org/Graphics/SVG/1.1/DTD/svg11.dtd"><svg width="100%" height="100%" viewBox="0 0 400 128" version="1.1" xmlns="http://www.w3.org/2000/svg" xmlns:xlink="http://www.w3.org/1999/xlink" xml:space="preserve" xmlns:serif="http://www.serif.com/" style="fill-rule:evenodd;clip-rule:evenodd;stroke-linejoin:round;stroke-miterlimit:2;"><g><path d="M2.53,96.615l-0,5.51l51.935,-0l0,-5.51l4.953,-0l0,5.085l42.313,0l0,-5.085l0.867,-0l0,-94.196l-101.05,0l-0,94.196l0.982,-0Z" style="fill:#fff;"/><path d="M252.134,99.596l-8.025,-0l-2.308,-20.772c-0.368,-2.891 -0.421,-5.73 -0.421,-6.047c-0.104,0.525 -0.628,3.208 -1.31,5.837l-6.766,20.982l-6.505,-0l-6.819,-20.929c-0.734,-2.577 -1.258,-5.258 -1.364,-5.89c-0,0.317 -0.053,3.208 -0.315,6.047l-2.308,20.772l-8.024,-0l5.087,-36.808l9.233,-0l6.975,22.138c0.367,1.418 0.682,3.258 0.735,3.575c0.052,-0.265 0.314,-2.103 0.734,-3.523l7.081,-22.19l9.232,-0l5.088,36.808Z" style="fill:#231f20;fill-rule:nonzero;"/><path d="M302.034,99.596l-8.027,-0l-2.308,-20.772c-0.366,-2.891 -0.418,-5.73 -0.418,-6.047c-0.105,0.525 -0.63,3.208 -1.313,5.837l-6.766,20.982l-6.503,-0l-6.819,-20.929c-0.734,-2.577 -1.26,-5.258 -1.364,-5.89c-0,0.317 -0.052,3.208 -0.316,6.047l-2.307,20.772l-8.026,-0l5.088,-36.808l9.233,-0l6.974,22.138c0.369,1.418 0.683,3.258 0.735,3.575c0.054,-0.265 0.316,-2.103 0.735,-3.523l7.082,-22.19l9.23,-0l5.09,36.808Z" style="fill:#231f20;fill-rule:nonzero;"/><path d="M307.494,84.025l-0,-21.034l8.078,0l-0,20.825c-0,5.994 2.382,9.097 7.311,9.097c4.931,0 7.313,-2.998 7.313,-8.835l0,-21.087l8.077,0l-0,20.772c-0,11.148 -5.632,16.617 -15.494,16.617c-9.862,0 -15.285,-5.522 -15.285,-16.355Z" style="fill:#231f20;fill-rule:nonzero;"/><path d="M345.688,62.787l7.448,-0l17.207,22.664l-0,-22.664l7.972,-0l-0,36.808l-6.873,-0l-17.78,-23.399l-0,23.399l-7.974,-0l-0,-36.808Z" style="fill:#231f20;fill-rule:nonzero;"/><path d="M131.919,62.787l8.067,-0l0,16.073l14.882,-16.073l9.743,-0l-14.932,15.603l15.615,21.166l-9.693,-0l-11.37,-15.653l-4.245,4.412l0,11.241l-8.067,-0l-0,-36.769Z" style="fill:#231f20;fill-rule:nonzero;"/><path d="M165.495,80.891l-0,-0.101c-0,-10.318 8.119,-18.77 19.291,-18.77c11.172,-0 19.186,8.345 19.186,18.665l0,0.105c0,10.318 -8.119,18.764 -19.291,18.764c-11.172,0 -19.186,-8.345 -19.186,-18.663Zm30.153,-0l-0,-0.101c-0,-6.224 -4.553,-11.408 -10.967,-11.408c-6.413,-0 -10.862,5.079 -10.862,11.303l0,0.105c0,6.218 4.553,11.402 10.967,11.402c6.413,-0 10.862,-5.079 10.862,-11.301Z" style="fill:#231f20;fill-rule:nonzero;"/><path d="M234.591,11.183l12.816,0c4.195,0 7.498,1.157 9.597,3.258c1.676,1.682 2.515,3.731 2.515,6.254l-0,0.105c-0,4.154 -2.201,6.466 -4.824,7.938c4.248,1.629 6.869,4.099 6.869,9.041l-0,0.104c-0,6.729 -5.452,10.092 -13.736,10.092l-13.237,-0l0,-36.792Zm11.087,14.874c3.564,-0 5.82,-1.156 5.82,-3.889l0,-0.106c0,-2.417 -1.888,-3.783 -5.295,-3.783l-3.746,-0l-0,7.778l3.221,-0Zm2.15,14.822c3.564,0 5.716,-1.262 5.716,-3.994l-0,-0.105c-0,-2.472 -1.837,-3.994 -5.979,-3.994l-5.108,-0l-0,8.093l5.371,0Z" style="fill:#231f20;fill-rule:nonzero;"/><path d="M370.432,42.613l4.771,-5.728c3.305,2.732 6.765,4.466 10.958,4.466c3.304,-0 5.295,-1.312 5.295,-3.467l-0,-0.104c-0,-2.051 -1.258,-3.103 -7.392,-4.681c-7.392,-1.89 -12.163,-3.941 -12.163,-11.245l0,-0.106c0,-6.676 5.347,-11.09 12.845,-11.09c5.348,-0 9.909,1.68 13.632,4.676l-4.195,6.099c-3.252,-2.26 -6.448,-3.629 -9.541,-3.629c-3.095,0 -4.72,1.42 -4.72,3.207l0,0.106c0,2.417 1.574,3.207 7.919,4.834c7.444,1.945 11.638,4.625 11.638,11.039l-0,0.104c-0,7.306 -5.559,11.407 -13.475,11.407c-5.557,-0 -11.169,-1.944 -15.572,-5.888Z" style="fill:#231f20;fill-rule:nonzero;"/><path d="M125.162,11.052l8.913,-0l9.594,25.912l9.597,-25.912l8.702,-0l-14.838,37.055l-7.129,-0l-14.839,-37.055Z" style="fill:#231f20;fill-rule:nonzero;"/><path d="M199.368,11.182l13.754,0c4.667,0 8.284,1.314 10.697,3.731c2.043,2.05 3.144,4.942 3.144,8.411l-0,0.104c-0,5.939 -3.197,9.672 -7.864,11.405l8.966,13.14l-9.438,0l-7.865,-11.771l-3.32,0l0,11.771l-8.074,0l0,-36.791Zm13.23,17.87c3.933,-0 6.187,-2.102 6.187,-5.202l-0,-0.107c-0,-3.469 -2.413,-5.255 -6.345,-5.255l-4.998,0l0,10.564l5.156,-0Z" style="fill:#231f20;fill-rule:nonzero;"/><path d="M298.738,11.182l13.753,0c4.667,0 8.284,1.314 10.697,3.731c2.043,2.05 3.144,4.942 3.144,8.411l-0,0.104c-0,5.939 -3.197,9.672 -7.864,11.405l8.966,13.14l-9.437,0l-7.866,-11.771l-3.32,0l0,11.771l-8.073,0l0,-36.791Zm13.229,17.87c3.933,-0 6.187,-2.102 6.187,-5.202l0,-0.107c0,-3.469 -2.413,-5.255 -6.345,-5.255l-4.998,0l0,10.564l5.156,-0Z" style="fill:#231f20;fill-rule:nonzero;"/><path d="M171.693,11.052l8.711,-0l13.035,36.934l-8.348,-0l-2.432,-7.595l-13.566,0l-2.498,7.595l-8.055,-0l13.153,-36.934Zm-0.509,22.977l9.437,-0l-4.655,-14.534l-4.782,14.534Z" style="fill:#231f20;fill-rule:nonzero;"/><path d="M267.776,11.183l23.465,0l0,7.2l-15.444,-0l0,7.463l10.663,-0l-0,7.201l-10.663,0l0,7.726l15.444,0l0,7.202l-23.465,-0l0,-36.792Z" style="fill:#231f20;fill-rule:nonzero;"/><path d="M330.477,29.638l-0,-0.103c-0,-10.511 8.168,-19.121 19.335,-19.121c6.64,0 10.644,1.792 14.486,5.069l-5.108,6.18c-2.845,-2.376 -5.376,-3.749 -9.64,-3.749c-5.903,-0 -10.592,5.231 -10.592,11.513l-0,0.108c-0,6.759 4.638,11.722 11.17,11.722c2.953,-0 5.587,-0.738 7.642,-2.218l0,-5.282l-8.168,0l-0,-7.023l16.018,0l0,16.055c-3.795,3.22 -9.013,5.861 -15.757,5.861c-11.485,0 -19.386,-8.08 -19.386,-19.012Z" style="fill:#231f20;fill-rule:nonzero;"/><path d="M59.309,36.172c0.331,0.246 0.872,0.258 1.364,0.236c0,-1.249 -0.15,-2.448 -0.088,-3.5c-0.435,-0.435 -1.031,-0.944 -2.259,-1.304c-0.074,1.108 0.073,2.588 0.368,3.548c0.163,0.532 0.369,0.838 0.615,1.02Z" style="fill:#f6891e;fill-rule:nonzero;"/><path d="M96.501,35.172c0.134,-0.357 -0.017,-0.742 -0.169,-0.998c-0.037,-0.063 -0.073,-0.125 -0.107,-0.17c-0.12,-0.154 -0.199,-0.458 -0.199,-0.759c-0.004,-0.125 0.009,-0.253 0.043,-0.368c0.071,-0.254 0,-0.497 -0.091,-0.7c-0.051,-0.105 -0.101,-0.202 -0.142,-0.28c-0.097,-0.196 -0.279,-1.745 -0.283,-2.128c0,-0.054 0,-0.11 0.007,-0.17c0.04,-0.356 0.017,-0.621 -0.159,-0.847c-0.07,-0.094 -0.158,-0.177 -0.283,-0.261c-0.245,-0.166 -0.387,-0.385 -0.479,-0.649c-0.03,-0.091 -0.056,-0.192 -0.073,-0.294c-0.051,-0.269 -0.216,-0.474 -0.422,-0.618c-0.269,-0.192 -0.617,-0.274 -0.867,-0.243c-0.035,0.004 -0.075,0.001 -0.112,0.003c-0.115,-0.389 -0.238,-0.777 -0.378,-1.159c-0.122,-0.335 -0.367,-0.505 -0.633,-0.578c-0.375,-0.107 -0.787,-0.024 -0.958,0.073c-0.189,0.112 -0.452,0.112 -0.728,-0.007c-0.145,-0.06 -0.297,-0.156 -0.442,-0.286c-0.236,-0.212 -0.563,-0.25 -0.842,-0.216c-0.216,0.027 -0.409,0.101 -0.497,0.172c-0.161,0.132 -0.617,0.037 -0.933,-0.109c-0.095,-0.044 -0.183,-0.091 -0.243,-0.142c-0.472,-0.398 -0.994,-0.38 -1.392,-0.23c-0.223,0.084 -0.404,0.208 -0.52,0.324c-0.04,0.04 -0.073,0.08 -0.096,0.116c-0.123,0.199 -0.317,0.423 -0.519,0.568c-0.055,0.039 -0.329,0.158 -0.402,0.145c-0.258,-0.036 -0.696,0.066 -0.974,0.317c-0.039,0.035 -0.282,0.285 -0.381,0.357c-0.233,0.168 -0.514,0.263 -0.779,0.293c-0.163,0.018 -0.333,0.016 -0.513,0.061c-0.484,-0.008 -0.889,0.226 -1.083,0.44c-0.065,0.072 -0.107,0.143 -0.118,0.201c-0.031,0.154 -0.068,0.283 -0.109,0.395c-0.059,0.156 -0.129,0.275 -0.224,0.345c-0.008,0.002 -0.371,0.197 -0.529,0.358c-0.071,0.072 -0.194,0.256 -0.194,0.256c0.655,-0.42 1.58,-0.473 2.556,-0.169c1.013,0.315 1.783,0.953 2.188,1.646l1.202,-0.864c7.781,-3.241 7.442,4.659 6.706,8.286c-0.414,2.033 -0.09,3.729 0.483,5.199c0.096,0.245 0.198,0.486 0.311,0.72c-0.419,-1.889 0.128,-3.721 0.628,-6.591c0.241,-1.386 0.362,-3.276 0.216,-5.33c-0.01,-0.142 -0.018,-0.282 -0.031,-0.426c1.589,2.104 0.93,5.239 1.07,8.839c0.048,1.221 0.186,2.226 0.706,2.941c0.071,0.097 0.148,1.545 0.234,1.631c-0.097,-1.078 -0.029,-1.946 0.025,-2.588c0.006,-0.079 0.013,-0.157 0.017,-0.226c0.006,-0.093 -0.011,-0.204 -0.035,-0.32c-0.033,-0.197 -0.077,-0.41 -0.007,-0.582c0.099,-0.249 0.108,-0.407 0.072,-0.678c-0.004,-0.032 -0.01,-0.063 -0.017,-0.097c-0.03,-0.192 -0.007,-0.327 0.027,-0.436c0.026,-0.088 0.06,-0.159 0.084,-0.232c0.058,-0.165 0.168,-0.555 0.058,-0.829c-0.031,-0.08 -0.045,-0.162 -0.045,-0.244c0.004,-0.179 0.071,-0.366 0.186,-0.541c0.023,-0.037 0.049,-0.07 0.077,-0.104c0.223,-0.278 0.058,-0.666 -0.054,-0.999c-0.023,-0.062 -0.03,-0.13 -0.037,-0.202c-0.024,-0.205 0.02,-0.441 0.091,-0.685c0.034,-0.112 0.072,-0.219 0.112,-0.331Z" style="fill:#f6891e;fill-rule:nonzero;"/><path d="M61.939,66.236c0.052,-0.6 -0.045,-1.096 -0.496,-1.681c0.011,-0.086 -2.859,2.275 -2.966,2.128c0.037,0.049 -0,-0 0.041,0.05c0.004,0.006 0.009,0.013 0.013,0.016c0.951,1.158 1.103,1.719 1.204,3.286c1.339,-1.631 2.116,-2.778 2.204,-3.799Z" style="fill:#f6891e;fill-rule:nonzero;"/><path d="M59.284,92.562c0.533,0.117 1.234,0.314 1.755,0.459c0.095,0.03 0.191,0.057 0.283,0.083c1.231,0.366 2.457,0.748 3.693,1.24c0.566,-0.5 1.067,-1.326 1.597,-2.165c-1.457,-0.15 -2.633,-0.757 -3.709,-1.659c-0.003,0.016 -2.341,1.354 -3.619,2.042Z" style="fill:#f6891e;fill-rule:nonzero;"/><path d="M84.477,93.535c-0.584,0.68 -1.964,1.659 -3.132,2.504c0.556,0.01 1.152,0.036 1.701,0.081l-0.003,0.005c1.134,0.101 2.252,0.28 3.427,0.442c0.67,-0.597 1.274,-1.229 1.729,-1.773c-1.182,-0.387 -3.548,-1.546 -3.56,-1.553l-0.162,0.294Z" style="fill:#f6891e;fill-rule:nonzero;"/><path d="M43.73,58.218c-0.14,-1.157 -0.033,-2.313 0.351,-3.263c-0,2.773 1.609,5.685 4.307,7.683c-8.553,-5.533 -10.069,-9.158 -10.91,-14.349c0.802,1.789 0.633,3.263 2.174,5.086c-0,-0.841 0.316,-1.614 0.559,-1.965c-0.28,3.018 0.509,4.213 3.519,6.808Zm-10.422,-37.66c-0.099,3.818 2.174,4.561 3.858,5.553c-0.199,-1.041 -0.149,-2.279 -0,-3.321c0.395,3.423 1.583,4.366 3.264,5.207c-0.248,-0.795 -0.148,-1.438 -0.049,-2.183c0.296,1.289 0.89,2.529 2.275,3.967c-4.947,-1.834 -12.861,-6.792 -13.453,-10.165c1.088,1.536 2.225,2.678 3.908,3.721c-0.149,-0.895 -0.099,-1.54 0.197,-2.779Zm14.894,4.435c-0.187,-1.143 0,-1.866 0.38,-2.663c0.08,1.597 0.343,3.121 0.801,3.844c0.455,0.722 1.138,1.217 1.668,2.358c-4.934,-3.5 -7.783,-7.193 -8.277,-12.332c0.951,2.588 1.404,3.426 2.127,4.568c0.115,-1.027 0.571,-1.75 1.064,-2.169c-0.838,3.276 -0.04,4.111 2.237,6.394Zm8.695,-5.634c0.007,0.01 0.014,0.022 0.02,0.032c-0.005,-0 -0.011,-0.001 -0.016,-0.001c-0.001,-0.01 -0.002,-0.021 -0.004,-0.031Zm-1.566,-2.284c0.001,-0.001 0.001,-0.002 0.002,-0.003c0.001,0.001 0.001,0.002 0.002,0.004c-0.001,-0 -0.003,-0.001 -0.004,-0.001Zm13.427,2.843c0.177,0.904 0.268,1.807 -0.184,2.711c1.94,-0.362 4.331,-0.769 5.14,-4.563c0.225,1.173 0,2.442 -0.316,2.935c1.714,-1.039 2.977,-2.167 4.147,-4.021c-1.396,3.661 -3.971,5.762 -8.159,6.551c-4.553,0.861 -9.961,2.441 -11.178,3.255c0.993,-0.814 2.322,-1.571 3.427,-2.035c1.622,-0.675 2.389,-2.031 2.703,-2.528c0.089,0.813 -0.092,1.266 -0.543,1.897c3.024,-0.948 4.645,-2.033 4.963,-4.202Zm-10.656,28.382c-0.247,-0.78 -0.237,-1.422 -0.129,-1.922c0.261,1.185 0.707,1.603 0.916,2.579c1.656,-1.816 0.712,-3.264 1.313,-4.448c-0.026,1.21 0.37,1.658 0.289,2.447c0.841,-0.918 1.287,-1.421 1.732,-2.527c0.107,1.106 -0.432,1.7 -1.548,3.055c-1.496,1.814 -2.754,3.789 -3.91,5.21c0.367,-1.158 0.183,-2.71 -0.052,-3.237c0.366,0.448 0.707,0.869 0.786,1.421c0.603,-0.921 1.024,-1.262 0.603,-2.578Zm42.789,44.317c-0,2.866 -0.474,5.535 -1.364,7.936c-5.662,-2.91 -17.299,-5.983 -26.581,-3.826c-4.961,-2.517 -10.465,-4.108 -16.292,-4.552l-0.007,0c-0.212,-0.513 -0.276,-0.977 -0.325,-1.282c-0.672,-4.154 -0.718,-12.301 -0.672,-13.3c0.237,-5.263 -1.068,-5.977 -1.579,-7.166c-0.053,-1.712 -0.221,-8.051 -0.287,-12.538c0.743,-2.426 3.392,-4.084 4.091,-3.994c2.144,0.278 1.991,-0.393 1.602,-0.695c-0.22,-0.171 -0.395,-0.727 0.182,-0.726c1.238,0.002 2.685,-0.485 3.047,-1.15c0.285,-0.523 0.151,-1.119 -0.24,-0.999c-0.472,0.146 -0.633,-0.3 -0,-0.604c0.77,-0.367 1.81,-1.028 2.051,-1.906c0.312,-1.133 -0.221,-1.033 -0.543,-0.817c-0.452,0.303 -0.784,-0.302 -0.423,-0.727c0.825,-0.965 0.875,-2.237 0.392,-2.964c-0.483,-0.727 -2.053,-0.304 -2.053,0.453c0,0.826 -0.601,0.362 -0.601,-0.031c0,-0.608 -0.123,-0.966 -0.816,-0.696c-1.561,0.613 -1.45,2.301 -1.237,3.086c0.087,0.328 -0.181,0.393 -0.393,0.152c-0.212,-0.241 -0.387,-0.721 -0.423,-0.998c-0.06,-0.484 -0.423,-0.484 -0.726,-0.303c-1.465,0.88 -1.266,3.026 -1.025,3.571c0.241,0.545 -0.12,0.545 -0.271,0.332c-0.586,-0.823 -0.875,0.092 -0.663,1.119c0.209,1.031 0.173,2.558 -0.154,3.296c-0.048,0.109 -1.173,0.849 -1.823,1.273c0.003,-0.649 0.015,-1.103 0.039,-1.274l-0,0.001c0.024,-0.089 0.014,-1.528 -0.029,-2.111c-0.02,0.009 -0.418,-8.636 0.741,-13.413l-1.032,-0.633c0.084,-8.357 6.006,-9.977 8.059,-8.986c2.12,1.017 3.55,1.617 5.172,1.224c1.144,-0.276 0.276,-0.909 0.039,-1.266c-0.566,-0.849 0.476,-1.149 0.83,-0.751c0.354,0.394 0.673,0.793 1.62,1.189c2.678,1.117 3.828,-0.993 2.645,-1.864c-0.652,-0.481 -0.16,-0.87 0.434,-0.71c2.252,0.79 4.778,-0.083 5.212,-0.595c0.492,-0.581 0.235,-0.832 -0.194,-1.068c-0.999,-0.546 -0.154,-1.277 0.948,-1.071c2.525,0.477 2.997,-2.377 1.932,-3.327c-0.667,-0.594 -0.632,-1.027 -0.119,-1.739c0.514,-0.715 1.264,-2.614 -0.353,-3.565c-1.621,-0.951 -3.005,0.672 -3.28,1.504c-0.275,0.831 -1.135,0.91 -1.183,0.08c-0.041,-0.674 -0.438,-0.948 -1.541,-0.475c-1.107,0.475 -2.171,2.058 -2.606,3.246c-0.395,1.079 -1.304,0.635 -1.067,-0.355c0.292,-1.224 -0.04,-1.665 -0.949,-1.227c-1.104,0.527 -2.291,2.375 -2.291,3.523c-0,1.146 -1.145,0.752 -1.145,0.158c0,-1.351 -1.026,-0.833 -1.499,-0.278c-0.474,0.554 -2.055,2.652 -4.622,4.556c-2.228,1.649 -3.422,2.566 -5.83,4.545c-0.344,-3.232 0.789,-4.222 1.314,-4.945c0.254,-0.348 0.561,-0.56 1.02,-0.533c3.437,0.249 4.653,-1.29 5.002,-2.338c0.097,-0.295 0.031,-0.524 -0.199,-0.891c1.285,-1.483 3.29,-4.485 1.382,-6.395c-1.553,-1.555 -4.467,-0.377 -5.981,0.721c0.36,1.6 4.598,5.672 4.599,5.674c-2.269,-1.229 -5.103,-4.399 -5.549,-5.073c-0.187,-0.013 -0.207,0.065 -0.403,0.196c-2.126,1.42 -1.911,4.683 -1.185,6.43c0.18,0.435 0.197,0.822 -0.164,1.285c-0.639,0.816 -1.512,2.505 -1.447,4.385c-2.731,-2.178 -1.432,-5.575 -1.319,-7.256c0.133,-1.91 -1.381,-1.746 -1.807,-1.152c-0.313,0.431 -0.787,0.33 -0.659,-0.331c0.135,-0.659 0.23,-1.583 -0.032,-2.571c-0.513,-1.937 -1.572,-1.334 -1.942,-0.595c-0.36,0.727 -0.821,0.494 -0.788,-0.295c0.043,-1.06 -0.592,-2.209 -2.172,-2.178c-2.367,0.051 -3.091,2.704 -2.269,4.222c0.218,0.403 -0.066,0.725 -0.495,0.593c-0.427,-0.133 -0.952,0.167 -0.722,1.32c0.229,1.153 1.381,2.475 2.598,2.802c0.674,0.183 0.493,0.463 0.261,0.661c-0.228,0.197 -0.493,0.525 -0.293,1.055c0.881,2.365 3.191,2.768 3.585,2.768c0.395,0 0.592,0.331 0.725,0.596c0.786,1.575 2.136,1.451 2.826,1.384c1.899,-0.181 1.544,2.275 1.416,4.648c-1.216,-1.118 -2.137,-1.811 -5.296,-3.56c-2.742,-1.516 -3.551,-4.546 -4.209,-5.748c-0.656,-1.205 -1.485,-0.459 -1.8,-0.084c-0.314,0.369 -0.627,0.255 -0.6,-0.344c0.039,-0.808 0.066,-1.741 -0.171,-2.179c-1,-1.862 -2.658,-1.174 -2.913,-0.744c-0.258,0.428 -0.457,0.685 -0.942,-0.174c-0.475,-0.837 -0.344,-1.288 -0.767,-2.148c-0.763,-1.562 -1.969,-0.611 -2.297,0.172c-0.274,0.654 -0.653,0.206 -0.617,-0.411c0.1,-1.813 -2.443,-3.291 -4.047,-1.686c-1.871,1.87 -0.276,3.68 0.822,4.092c0.592,0.22 0.275,0.687 -0.137,0.653c-0.911,-0.078 -1.268,0.447 -0.961,1.409c0.31,0.964 1.547,1.9 2.918,2.063c0.581,0.07 0.65,0.55 0.239,0.619c-0.681,0.115 -0.754,0.517 -0.412,0.998c1.066,1.498 3.085,2.029 4.492,1.581c0.428,-0.136 0.757,0.343 0.242,0.653c-0.394,0.237 -0.62,0.584 -0.275,0.928c0.671,0.674 2.058,1.238 3.738,0.86c1.681,-0.377 3.952,-0.02 6.078,0.769c3.019,1.124 6.163,3.841 6.042,7.205c-0.07,2.061 0.039,4.198 0.158,7.722c-1.342,-0.475 -1.973,-1.109 -3.001,-3.01c-1.025,-1.899 0.278,-4.55 -2.33,-6.612c-0.262,-0.206 -0.592,-0.316 -0.947,-0.077c-2.213,-1.545 -5.411,-2.773 -7.071,-1.068c-1.656,1.699 -0.107,5.067 1.256,6.595c1.054,-0.794 4.951,-4.633 4.951,-4.633c0,-0 -3.112,4.436 -4.392,5.164c-0.155,0.356 -0.076,0.75 0.045,0.908c1.356,1.817 2.921,1.466 5.803,1.508c4.192,0.056 4.975,3.757 5.371,6.648c0.087,0.635 0,0.95 -0.277,0.793c-0.966,-0.553 -0.869,0.633 0.08,1.82c1.727,2.163 0.83,6.175 0.672,7.208c-0.16,1.028 -0.631,1.068 -1.186,-0.042c-0.92,-1.845 0.239,-3.917 -0.197,-5.582c-0.676,-2.579 -1.818,-1.82 -2.133,-1.226c-0.315,0.593 -0.789,0.236 -0.75,-0.236c0.039,-0.477 0,-1.507 -0.076,-2.062c-0.347,-2.414 -2.453,-1.701 -2.848,-1.027c-0.395,0.675 -0.789,0.435 -0.946,-0.119c-0.211,-0.741 -0.195,-1.624 -0.277,-2.336c-0.253,-2.291 -1.826,-1.623 -2.298,-1.03c-0.477,0.593 -0.83,0.517 -0.91,-0.396c-0.196,-2.298 -2.012,-2.811 -3.475,-1.782c-3.107,2.19 -0.292,4.552 0.14,4.87c0.436,0.317 0.398,0.83 -0.038,0.991c-2.132,0.776 0.159,3.562 1.7,4.077c0.503,0.167 0.789,0.633 0.276,0.908c-0.514,0.28 -0.711,0.438 -0.396,1.231c0.525,1.312 0.934,2.136 3.065,1.978c0.594,-0.043 1.026,0.673 0.473,1.069c-0.687,0.495 -0.473,1.347 0.594,1.465c1.691,0.188 3.516,0 4.858,0.595c1.545,0.682 3.395,1.461 3.516,4.119c0.083,1.862 0.117,4.909 0.037,7.48c-0.035,1.193 -1.027,0.873 -0.985,3.089c0.055,3.249 0.276,8.593 -0,12.392c-0.052,0.71 -0.166,1.188 -0.614,1.983c-5.424,0.666 -10.538,2.332 -15.157,4.808c-7.874,-2.269 -21.354,-0.726 -28.271,3.182l-0.073,-0.126c-0.815,-2.316 -1.252,-4.874 -1.252,-7.612l-0,-89.16l97.678,-0l-0,89.16Zm3.212,0.009l0,-92.391l-104.103,0l-0,92.382c-0,10.16 5.175,18.253 13.839,21.649c2.468,0.973 6.631,1.984 11.452,3.154c9.29,2.256 22.013,5.345 25.61,9.281l1.185,1.299l0.006,-0.007l0.006,0.007l1.185,-1.299c3.591,-3.938 16.297,-7.027 25.574,-9.283c4.807,-1.167 8.958,-2.177 11.421,-3.148c8.658,-3.394 13.826,-11.485 13.826,-21.645l-0.001,0.001Z" style="fill:#0f913e;fill-rule:nonzero;"/><path d="M72.331,43.74c-0.106,0.545 0.048,1.672 1.41,1.199c0.874,-0.301 0.878,-0.577 1.498,-1.016c-1.016,-0.906 -1.857,-2.052 -2.243,-3.156c-0.17,-0.49 -0.22,-0.882 -0.734,-1.026c-0.51,-0.15 -0.806,-0.516 -0.806,-1.029c0,-0.515 -0.805,-1.544 -2.416,-1.763c-1.612,-0.221 -2.323,-1.004 -3.567,-2.399c-0.453,-0.504 -1.028,-0.807 -1.394,-0.807c-0.366,0 -0.732,-0.221 -1.1,-0.516c-0.793,-0.635 -1.453,-0.452 -2.404,-0.306c-0.021,-0.021 -0.099,2.439 0.088,3.501c0.233,-0.01 0.398,0.018 0.442,0.017c0.221,-0.007 0.455,-0.004 0.702,0.021c-0.218,0.512 -0.247,1.13 0.121,1.718c0.091,-0.359 0.254,-0.554 0.542,-0.837c-0.147,0.732 0.157,1.521 0.596,1.74c0.047,-2.602 2.239,-1.082 2.898,-0.713c0.66,0.368 1.831,1.077 2.052,1.812c0.221,0.735 0.877,1.614 1.756,2.203c0.073,0.589 0.223,0.807 0.442,1.32c0.496,1.166 -0.662,1.322 -1.321,1.027c0.274,1.755 0.882,2.648 1.808,3.416c0.544,-0.562 0.927,-1.267 0.951,-1.739c0.057,-1.029 -0.752,-1.799 0.679,-2.667Z" style="fill:#b82133;fill-rule:nonzero;"/><path d="M78.149,32.596c-0.19,0.172 -0.221,0.444 -0.074,0.609c0.152,0.168 0.427,0.162 0.615,-0.009c0.187,-0.173 0.219,-0.447 0.07,-0.612c-0.148,-0.166 -0.425,-0.161 -0.611,0.012Z" style="fill:#b82133;fill-rule:nonzero;"/><path d="M81.8,35.38c-1.006,-0.059 -1.51,0.038 -2.887,1.746c1.089,-2.641 2.405,-2.004 3.494,-2.662c0.711,-0.424 0.992,-1.198 1.197,-2.057c0.499,2.233 -0.239,3.062 -1.804,2.973Zm0.098,16.996c-0.346,0.609 -0.567,1.272 -0.352,1.926c-0.562,0.087 -0.953,-0.306 -1.126,-0.565c-0.176,-0.261 -0.603,-0.097 -0.948,0.078c-0.348,0.17 -1.163,0.553 -2.258,-0.078c-0.383,-0.226 -0.597,0.13 -0.605,0.306c-0.041,0.939 -0.501,1.68 -2.103,2.028c0.431,-0.432 0.524,-1.017 0.242,-1.456c-0.491,0.978 -1.171,1.162 -2.469,0.814c0.822,-0.39 1.25,-1.426 0.043,-1.303c1.147,-0.323 1.585,0.364 0.93,0.989c0.531,-0.061 1.116,-0.454 1.278,-0.781c0.313,-0.626 1.218,-0.908 0.656,1.127c0.625,-0.846 0.872,-1.096 1.091,-1.534c0.199,-0.395 0.524,-0.538 1.123,-0.407c0.997,0.219 1.254,-0.073 1.934,-0.436c0.938,-0.503 1.08,-0.07 1.25,0.186c0.127,0.188 0.251,0.502 0.685,0.813c-0.498,-1.156 -0.135,-1.466 0.219,-2.16c0.502,-0.967 0.505,-1.577 0.536,-2.007c0.237,1.313 0.219,1.853 -0.126,2.46Zm-4.371,-18.595c0.332,-0.881 -0.157,-1.163 0.392,-1.822c0.271,-0.221 0.673,-0.237 1.02,-0.178c0.494,0.085 0.673,0.878 0.267,1.412c-0.452,0.595 -1.184,0.477 -1.679,0.588Zm14.294,34.117c0.806,-1.321 2.489,-1.1 3.187,-1.028c-0.074,-1.909 -0.844,-2.642 -2.163,-2.424c0.441,-2.09 0.586,-3.78 0.184,-5.763c-0.258,0.661 -0.991,0.587 -1.282,1.797c-0.365,-0.513 -0.047,-1.45 0.184,-1.872c0.696,-1.283 0.292,-3.046 -0.334,-3.782c-0.034,1.619 -0.73,4.077 -1.501,4.409c-0.216,-0.699 -0.18,-1.399 0.222,-2.828c1.125,-3.993 -0.438,-4.993 -1.208,-5.544c0.221,0.735 0.404,2.129 0.332,3.047c-0.136,1.684 -1.209,2.241 -0.992,6.167c0.111,1.983 1.409,2.99 1.646,4.186c0.369,1.835 -1.716,1.542 -2.125,0.698c-1.489,-3.125 -2.523,-10.793 -1.904,-15.494c0.626,0.329 1.102,0.405 1.614,0.329c-0.914,-0.989 -0.476,-3.375 -0.074,-4.146c0.147,0.33 0.696,0.623 1.137,0.808c-0.257,-0.842 -0.294,-1.36 -0.04,-1.909c0.289,-0.615 1.868,-1.503 0.991,-4c0.258,0.475 0.66,0.585 1.099,0.66c-0.439,-0.479 -0.366,-0.626 -0.259,-1.581c0.115,-0.954 0.663,-2.311 0.037,-3.853c0.331,0.256 0.7,0.293 1.102,0.111c-0.439,-0.222 -1.061,-0.773 -1.061,-1.581c-0,-0.746 -0.349,-1.304 -1.033,-2.106c-0.454,0.58 -1.859,0.294 -2.949,-0.165c-1.208,-0.508 -1.692,-0.658 -2.429,-0.415c0.688,-0.88 1.269,-0.755 2.274,-0.086c1.33,0.883 2.943,0.478 2.928,0.46c0.549,-0.221 1.024,-0.441 1.39,-1.248c-0.951,0.181 -2.233,-2.497 -6.227,-0.92c-0.006,-0.005 -0.145,0.036 -0.145,0.036c-0.276,-0.654 -1.175,-1.332 -2.188,-1.646c-2.835,-0.879 -3.245,1.166 -3.56,1.684c0.036,-0.255 -0.075,-0.696 -0.221,-1.027c-0.111,0.772 -1.282,1.725 -1.577,2.054c-0.292,0.331 -0.328,1.396 -0.693,1.8c-0.29,0.318 -1.318,1.322 -1.724,1.726c-0.401,0.405 -0.729,0.514 -1.134,0.514c-0.402,-0 -0.656,0.369 -0.623,0.772c0.004,0.04 0.004,0.104 -0.005,0.184c-0.028,0.258 -0.122,0.695 -0.285,1.09l-0,0c-0.054,0.133 -0.117,0.26 -0.185,0.377c-0.221,0.367 0.18,0.882 0.549,0.991c0.307,0.092 0.635,0.207 0.971,0.321c-0.368,0.223 -0.727,0.404 -1.045,0.524c0.841,0.288 1.613,0.168 2.296,-0.165c1.113,0.232 2.153,0.111 2.685,-1.268c0.331,-0.403 0.623,-0.071 0.623,0.15c-0,0.218 -0.075,0.476 -0.365,0.879c-0.627,0.861 -1.795,1.762 -1.503,2.901c0.221,-0.513 0.626,-1.038 1.318,-1.357c0.201,-0.094 0.409,-0.133 0.625,-0.155c0.313,-0.027 0.637,-0.016 0.965,-0.068c0.539,-0.083 1.095,-0.33 1.634,-1.173c0.073,2.79 -2.454,2.862 -3.702,2.716c0.039,0.737 -0.399,1.176 -0.694,1.394c-0.461,0.343 -0.852,0.601 -1.345,0.844c-0.349,0.56 -0.44,0.943 -1.436,1.453c-1.264,0.651 -1.726,-0.532 -1.754,-1.045c-0.519,0.324 -0.132,1.219 -0.042,1.897c0.292,2.148 -2.088,3.152 -3.254,2.829c-0.112,-0.021 -0.224,-0.053 -0.336,-0.103c0.271,0.413 0.489,0.876 0.672,1.352c-0.987,0.162 -1.919,0.753 -2.117,1.151c-0.201,0.404 -0.352,0.809 -0.957,1.009c-0.603,0.203 -1.054,0.203 -1.609,1.412c-0.881,1.932 -4.478,5.145 -4.933,5.852c-0.452,0.706 -1.005,1.262 -0.903,1.918c0.098,0.656 0.148,1.362 -0.406,2.07c-0.548,0.694 -0.62,1.833 0.303,2.978c1.427,-0.754 2.598,-1.605 2.966,-2.128c0.101,-0.753 -0.445,-1.092 -0.298,-1.761c0.1,-0.451 0.402,-0.756 0.301,-1.763c0.303,0.705 1.309,1.159 2.116,1.057c-0.255,-0.303 -0.504,-0.706 -0.101,-1.109c0.653,-0.656 0.251,-1.212 0.101,-1.918c-0.088,-0.397 -0.255,-1.01 0.45,-1.463c0.708,-0.456 1.259,-0.859 1.561,-1.664c0.135,-0.36 0.401,-0.656 0.803,-0.656c0.811,0 1.814,-0.153 2.467,-0.554c0.404,-0.249 0.673,-0.534 1.041,-0.741c0.19,1.103 0.596,1.595 0.596,2.337c0,0.852 0.476,1.836 1.061,2.275c-0.037,-0.292 0.074,-0.551 0.147,-0.806c0.074,-0.258 0.512,-0.477 0.512,0.073c0,0.55 0.184,1.213 0.66,1.615c0.22,-0.696 0.842,-0.807 1.355,-0.733c0.146,0.404 0.146,0.842 0.037,1.468c0.623,-0.148 1.025,-0.698 1.206,-0.881c0.187,-0.183 0.625,-0.256 0.883,0.074c0.365,0.468 1.499,0.844 1.868,0.844c0.198,-0 0.586,0.218 0.655,0.55c0.074,0.331 0.441,1.468 0.88,2.018c-0.475,-0.072 -1.06,-0.401 -1.503,-0.951c-0.181,0.805 -0.146,1.429 0.111,2.312c0.1,0.346 0.313,0.707 0.525,1.126c-1.379,0.965 -3.256,2.072 -4.08,2.296c-1.265,0.348 -3.394,1.964 -4.14,3.346c-0.748,1.386 -1.44,2.074 -1.956,2.768c-0.52,0.691 -0.805,0.806 -1.321,0.748c-0.516,-0.057 -1.325,0.866 -1.382,1.903c0.401,-0.46 0.807,-0.46 1.322,-0.634c-0.345,1.614 -1.553,2.073 -2.875,1.959c0.402,1.789 1.954,1.902 2.875,1.329c-0.17,0.403 -0.115,0.751 0.231,0.976c0.345,0.235 0.576,1.158 -0.286,1.386c1.551,0.923 2.816,-0.346 2.816,-0.749c-0,-0.402 0.175,-0.519 0.751,-0.113c0.571,0.402 1.779,0.516 2.7,0.228c0.921,-0.288 1.091,0.463 1.208,0.866c0.349,1.225 -0.174,1.5 -0.574,1.902c-1.165,1.164 -4.775,3 -6.039,3.171c-1.267,0.171 -2.072,1.154 -2.186,1.557c-0.113,0.402 -0.458,0.862 -0.746,0.923c-0.616,0.124 -2.569,1.546 -2.574,1.563c-0.05,0.184 2.021,1.442 3.501,1.837c0.359,-0.345 0.9,-0.612 1.053,-0.854c-0.274,-0.028 -0.274,-0.028 -0,0c0.276,-0.429 0.51,-0.872 0.663,-1.278c0.261,0.349 0.432,0.836 0.343,1.439c0.347,-0.402 0.847,-1.097 0.963,-1.845c0.104,0.285 0.198,0.802 0.134,1.272c0.515,-0.52 0.766,-1.111 0.939,-1.749c0.056,0.289 0.095,0.823 0.039,1.343c1.553,-1.095 1.551,-3.171 4.715,-4.96c0.058,0.463 0,0.866 -0.518,1.846c1.15,-0.634 1.954,-1.443 2.413,-2.188c0.461,-0.752 1.268,-0.52 2.132,-0.463c-0.174,-1.557 -0,-2.878 0.458,-3.17c0.459,-0.286 0.459,-1.098 0.288,-1.44c-0.174,-0.346 -0.288,-0.695 -0.06,-1.439c0.231,-0.755 -0.576,-1.215 -1.148,-1.215c-1.464,-0 -0.763,-3.351 1.399,-2.949c-0.412,-0.924 -1.324,-1.709 -1.508,-2.699c-0.462,-2.493 0.382,-3.509 0.45,-6.913c0.105,0.453 0.704,2.129 0.465,3.006c-0.335,1.222 -0.539,3.657 0.411,6.655c0.168,0.532 0.839,1.964 0.835,4.044c0.549,0.439 1.828,1.876 1.901,3.01c0.733,-0.362 1.064,-0.879 1.356,-1.504c0.184,0.514 0.331,1.064 0.073,1.729c0.734,-0.263 1.499,-0.92 1.942,-1.326c0.442,-0.403 0.552,-0.805 1.282,-0.732c1.566,0.155 2.453,1.759 2.711,4.293c0.253,2.532 -1.175,4.701 -2.089,5.361c-0.914,0.661 -2.454,2.242 -2.855,2.973c-0.003,0.003 -0.009,0.014 -0.009,0.017l-0.289,0.464c0,-0 2.312,1.157 3.407,1.648c0.192,-0.151 0.35,-0.289 0.442,-0.398c-0.3,-0.098 -0.3,-0.098 -0,-0c0.398,-0.473 0.726,-0.969 0.917,-1.436c0.401,-0.993 0.218,-1.691 0.729,-1.691c0.6,0 0.403,1.03 0.439,1.655c0.332,-0.773 1.249,-1.504 1.725,-1.836c0.036,-0.221 -0,-0.44 -0.075,-0.845c0.221,-0.148 0.332,-0.259 0.513,-0.513c-0.951,-1.397 -0.475,-2.904 0.22,-4.041c0.292,0.188 0.475,0.403 0.878,0.846c-0.292,-1.728 -0.038,-4.587 0.22,-6.204c0.111,-0.695 -0.743,-1.242 -0.438,-2.648c0.365,-1.684 -1.624,-2.349 -2.784,-2.161c-1.831,0.292 -2.381,-0.735 -2.414,-1.58c0.435,0.184 0.766,-0 1.134,-0.148c-0.699,-0.255 -0.953,-0.842 -1.027,-1.359c0.697,0.111 1.098,-0.111 1.466,-0.476c-1.761,-0.809 -1.65,-1.98 -1.392,-3.01c1.245,0.443 2.449,0.108 3.26,-1.212Z" style="fill:#b82133;fill-rule:nonzero;"/><path d="M24.94,33.302c-0,-2.658 -0.885,-4.774 -3.638,-6.603c2.556,0.647 4.551,2.979 4.551,6.559c-0,1.36 0.15,3.365 1.38,5.08l1.984,0c-1.558,-1.56 -2.064,-2.806 -2.064,-4.91c-0,-4.61 -2.64,-7.566 -5.951,-7.981c0.276,-0.232 0.456,-0.577 0.456,-0.969c-0,-0.699 -0.566,-1.27 -1.265,-1.27c-0.701,0 -1.266,0.571 -1.266,1.27c0,0.392 0.18,0.737 0.457,0.969c-3.312,0.415 -5.952,3.371 -5.952,7.981c0,2.104 -0.508,3.35 -2.064,4.91l14.122,0c-0.516,-1.204 -0.75,-2.437 -0.75,-5.036Z" style="fill:#b82133;fill-rule:nonzero;"/><path d="M12.223,57.68l16.341,-0c1.17,-0 2.117,-0.952 2.117,-2.121c0,-1.175 -0.947,-2.125 -2.117,-2.125l-16.341,-0c-1.17,-0 -2.12,0.95 -2.12,2.125c-0,1.169 0.95,2.121 2.12,2.121Z" style="fill:#b82133;fill-rule:nonzero;"/><path d="M29.414,84.914l-18.108,0c-0.571,0 -1.036,0.467 -1.036,1.041c-0,0.574 0.465,1.036 1.036,1.036l18.108,0c0.573,0 1.036,-0.462 1.036,-1.036c-0,-0.574 -0.463,-1.041 -1.036,-1.041Z" style="fill:#b82133;fill-rule:nonzero;"/><path d="M25.932,80.291l-3.793,0l-0,-15.344l3.793,-0l0,15.344Zm-6.981,0l-3.793,0l-0,-15.344l3.793,-0l-0,15.344Zm-7.496,-21.286l-0,24.973l17.874,-0l-0,-24.973l-17.874,0Z" style="fill:#b82133;fill-rule:nonzero;"/><path d="M29.377,87.928l-17.944,0l-3.089,11.075c-0,0 13.628,-4.75 24.031,-1.539l-2.998,-9.536Z" style="fill:#b82133;fill-rule:nonzero;"/><rect x="23.009" y="65.884" width="2.052" height="13.47" style="fill:#b82133;fill-rule:nonzero;"/><path d="M22.816,47.733l0,2.601l-1.053,-0c0.001,-0.021 0.006,-0.041 0.006,-0.063l0,-3.311c0,-0.697 -0.569,-1.267 -1.264,-1.267l-0.274,-0c-0.695,-0 -1.264,0.57 -1.264,1.267l-0,3.311c-0,0.022 0.005,0.042 0.006,0.063l-1.024,-0l-0,-2.601c-0,-0.942 -0,-3.148 2.434,-3.148c0.4,-0 0.759,0.066 1.066,0.188c1.367,0.557 1.367,2.121 1.367,2.96Zm4.756,-8.458l-14.36,0l-0,12.835l14.36,0l0,-12.835Z" style="fill:#b82133;fill-rule:nonzero;"/><rect x="16.028" y="65.884" width="2.052" height="13.47" style="fill:#b82133;fill-rule:nonzero;"/></g></svg>